<svg width="332" height="319" viewBox="0 0 332 319" fill="none" xmlns="http://www.w3.org/2000/svg">
<path d="M6.82711 93.132C-5.61768 81.2529 -11.1644 64.0627 -16.2397 47.564C1.3495 44.7305 19.3608 48.6232 34.2101 58.4674C49.0594 68.3116 59.6581 83.3857 63.8971 100.69C66.2227 109.976 63.7714 112.003 54.4693 111.202C46.3114 110.58 38.251 109.03 30.4439 106.582C21.6669 103.917 13.5975 99.321 6.82711 93.132Z" fill="#D05663"/>
<g style="mix-blend-mode:multiply" opacity="0.5">
<path d="M60.0173 111.422C60.0173 111.422 -7.45477 79.1002 3.7801 65.0212C18.1105 47.1083 64.6684 109.018 64.6684 109.018L60.0173 111.422Z" fill="#D05663"/>
</g>
<path d="M-11.4936 174.557C-28.778 174.965 -44.774 166.7 -60 158.686C-49.5565 144.242 -34.0567 134.261 -16.5861 130.729C0.884499 127.197 19.0445 130.374 34.2787 139.626C42.4809 144.545 42.1352 147.719 35.0329 153.768C28.8299 159.099 22.04 163.707 14.7944 167.502C6.66709 171.783 -2.31463 174.194 -11.4936 174.557Z" fill="#D05663"/>
<g style="mix-blend-mode:multiply" opacity="0.5">
<path d="M38.9923 149.919C38.9923 149.919 -31.5752 174.777 -33.5708 156.88C-36.1163 134.08 40.548 144.891 40.548 144.891L38.9923 149.919Z" fill="#D05663"/>
</g>
<path d="M33.1479 245.172C21.2688 257.617 4.07867 263.164 -12.4201 268.239C-15.2454 250.649 -11.3474 232.639 -1.50126 217.791C8.34493 202.943 23.4182 192.344 40.7217 188.102C50.0081 185.777 52.0351 188.228 51.218 197.53C50.6008 205.687 49.0562 213.748 46.6141 221.555C43.9438 230.334 39.3426 238.403 33.1479 245.172Z" fill="#D05663"/>
<g style="mix-blend-mode:multiply" opacity="0.5">
<path d="M51.438 191.983C51.438 191.983 19.1004 259.408 5.03718 248.221C-12.8915 233.89 49.0339 187.332 49.0339 187.332L51.438 191.983Z" fill="#D05663"/>
</g>
<path d="M114.605 263.494C115.013 280.699 106.748 296.774 98.7502 312C84.3061 301.557 74.3246 286.057 70.7926 268.586C67.2607 251.115 70.4373 232.955 79.6902 217.721C84.6084 209.519 87.7667 209.865 93.832 216.967C99.1631 223.17 103.771 229.96 107.565 237.206C111.842 245.334 114.247 254.316 114.605 263.494Z" fill="#D05663"/>
<g style="mix-blend-mode:multiply" opacity="0.5">
<path d="M89.9341 212.96C89.9341 212.96 114.792 283.543 96.895 285.539C74.0953 288.069 84.9059 211.404 84.9059 211.404L89.9341 212.96Z" fill="#D05663"/>
</g>
<path d="M185.124 218.853C197.585 230.732 203.116 247.938 208.207 264.421C190.616 267.246 172.607 263.348 157.759 253.502C142.911 243.656 132.312 228.582 128.07 211.279C125.744 201.992 128.196 199.965 137.498 200.783C145.664 201.382 153.735 202.911 161.555 205.339C170.321 208.028 178.375 212.645 185.124 218.853Z" fill="#D05663"/>
<g style="mix-blend-mode:multiply" opacity="0.5">
<path d="M131.999 200.562C131.999 200.562 199.471 232.9 188.221 246.963C173.906 264.892 127.348 202.967 127.348 202.967L131.999 200.562Z" fill="#D05663"/>
</g>
<path d="M203.51 137.395C220.715 136.987 236.79 145.252 252 153.266C241.557 167.686 226.07 177.651 208.618 181.179C191.166 184.707 173.025 181.541 157.8 172.31C149.598 167.392 149.944 164.233 157.03 158.168C163.236 152.863 170.026 148.282 177.269 144.513C185.372 140.206 194.34 137.773 203.51 137.395Z" fill="#D05663"/>
<g style="mix-blend-mode:multiply" opacity="0.5">
<path d="M152.975 162.065C152.975 162.065 223.543 137.207 225.538 155.12C228.084 177.92 151.419 167.094 151.419 167.094L152.975 162.065Z" fill="#D05663"/>
</g>
<path d="M158.868 66.8277C170.747 54.3672 187.937 48.8362 204.436 43.7451C207.269 61.3344 203.376 79.3456 193.532 94.195C183.688 109.044 168.614 119.643 151.31 123.882C142.023 126.208 139.996 123.772 140.798 114.454C141.428 106.297 142.978 98.2377 145.417 90.4288C148.083 81.6565 152.679 73.5923 158.868 66.8277Z" fill="#D05663"/>
<g style="mix-blend-mode:multiply" opacity="0.5">
<path d="M140.579 120.001C140.579 120.001 172.916 52.529 186.979 63.7795C204.908 78.0942 142.983 124.668 142.983 124.668L140.579 120.001Z" fill="#D05663"/>
</g>
<path d="M77.4116 48.4907C76.9874 31.2848 85.2682 15.2103 93.2662 0C107.693 10.4389 117.662 25.9242 121.194 43.3776C124.725 60.8309 121.56 78.974 112.326 94.2001C107.408 102.418 104.25 102.057 98.1844 94.9701C92.8953 88.7531 88.3253 81.9586 84.5611 74.7159C80.2448 66.6196 77.8015 57.6574 77.4116 48.4907Z" fill="#D05663"/>
<g style="mix-blend-mode:multiply" opacity="0.5">
<path d="M102.081 99.0245C102.081 99.0245 77.2225 28.4569 95.1197 26.4613C117.919 23.9158 107.109 100.58 107.109 100.58L102.081 99.0245Z" fill="#D05663"/>
</g>
<path d="M90.3266 70.4574C86.7912 91.5287 77.5833 113.731 77.5833 113.731C77.5833 113.731 17.8735 89.0146 17.5278 65.9949C17.4994 64.9374 17.6103 63.8807 17.8578 62.8522C21.0947 48.899 34.4194 55.4828 34.9693 55.7656C34.6865 55.0899 26.06 35.2286 42.3074 28.5819C58.7747 21.6838 66.7098 42.6451 66.7098 42.6451C66.7098 42.6451 71.4237 27.812 83.8371 35.5428C92.495 40.9953 92.8564 55.4042 90.3266 70.4574Z" fill="#E09F34"/>
<g style="mix-blend-mode:soft-light" opacity="0.6">
<path d="M90.3266 70.4574C90.3266 69.4675 91.018 40.7753 77.9447 44.2793C65.8142 47.5477 65.9242 53.7857 66.0342 54.87C65.7042 53.0001 62.3102 35.26 51.7667 36.1713C40.6418 37.1456 44.8529 62.1295 44.8529 62.1295C44.8529 62.1295 25.5729 54.6657 17.5278 66.0263C17.4994 64.9688 17.6103 63.9122 17.8578 62.8837C21.0947 48.9304 34.4194 55.5142 34.9693 55.7971C34.6865 55.1214 26.06 35.26 42.3074 28.6133C58.7747 21.7153 66.7098 42.6766 66.7098 42.6766C66.7098 42.6766 71.4237 27.8434 83.8371 35.5742C92.495 40.9953 92.8564 55.4042 90.3266 70.4574Z" fill="#EFE7D4"/>
</g>
<path d="M31.5137 99.5265C43.9114 116.937 53.1035 139.139 53.1035 139.139C53.1035 139.139 -6.57485 163.872 -23.105 147.844C-23.8838 147.117 -24.5604 146.287 -25.1163 145.377C-32.6901 133.231 -18.6111 128.454 -18.0297 128.266C-18.7054 127.999 -38.8496 120.048 -32.0458 103.848C-25.2892 87.3332 -4.86213 96.5411 -4.86213 96.5411C-4.86213 96.5411 -12.0116 82.7135 2.22448 79.4138C12.1709 77.1354 22.6515 87.0975 31.5137 99.5265Z" fill="#E09F34"/>
<g style="mix-blend-mode:soft-light" opacity="0.6">
<path d="M31.5135 99.5272C30.8221 98.8044 11.0079 78.0631 4.25125 89.7694C-2.034 100.659 2.45995 104.995 3.30846 105.671C1.73715 104.587 -13.1903 94.4519 -19.9941 102.528C-27.175 111.108 -6.57509 125.847 -6.57509 125.847C-6.57509 125.847 -25.4308 134.206 -23.1524 147.924C-23.9312 147.196 -24.6078 146.366 -25.1637 145.457C-32.7374 133.31 -18.6585 128.534 -18.0771 128.345C-18.7527 128.078 -38.897 120.127 -32.0932 103.927C-25.3365 87.4124 -4.9095 96.6203 -4.9095 96.6203C-4.9095 96.6203 -12.059 82.7928 2.17712 79.493C12.1707 77.136 22.6513 87.0982 31.5135 99.5272Z" fill="#EFE7D4"/>
</g>
<path d="M10.4725 161.672C31.5438 165.223 53.7465 174.415 53.7465 174.415C53.7465 174.415 29.0297 234.125 6.01003 234.471C4.95351 234.497 3.89784 234.391 2.86741 234.157C-11.0858 230.904 -4.50205 217.579 -4.23493 217.029C-4.89488 217.312 -24.7563 225.954 -31.4029 209.691C-38.301 193.224 -17.3554 185.289 -17.3554 185.289C-17.3554 185.289 -32.1886 180.575 -24.442 168.161C-19.0524 159.504 -4.58061 159.142 10.4725 161.672Z" fill="#E09F34"/>
<g style="mix-blend-mode:soft-light" opacity="0.6">
<path d="M10.4731 161.672C9.46748 161.672 -19.2089 160.981 -15.7049 174.054C-12.4366 186.184 -6.27706 186.074 -5.13 185.964C-6.98415 186.294 -24.74 189.688 -23.8129 200.232C-22.8387 211.357 2.14518 207.146 2.14518 207.146C2.14518 207.146 -5.31856 226.41 5.99489 234.471C4.93836 234.497 3.88269 234.391 2.85226 234.157C-11.101 230.904 -4.51718 217.579 -4.25006 217.029C-4.91001 217.312 -24.7714 225.954 -31.418 209.691C-38.3161 193.224 -17.3705 185.289 -17.3705 185.289C-17.3705 185.289 -32.2037 180.575 -24.4571 168.161C-19.0518 159.504 -4.58004 159.142 10.4731 161.672Z" fill="#EFE7D4"/>
</g>
<path d="M39.5419 220.487C56.9521 208.089 79.1547 198.897 79.1547 198.897C79.1547 198.897 103.871 258.607 87.8598 275.121C87.132 275.9 86.3022 276.577 85.3928 277.132C73.2308 284.706 68.4698 270.627 68.2655 270.046C68.0141 270.722 60.0633 290.866 43.863 284.078C27.3328 277.305 36.5564 256.878 36.5564 256.878C36.5564 256.878 22.7289 264.028 19.4134 249.792C17.135 239.83 27.1129 229.349 39.5419 220.487Z" fill="#E09F34"/>
<g style="mix-blend-mode:soft-light" opacity="0.6">
<path d="M39.5419 220.486C38.8191 221.178 18.0621 240.913 29.7841 247.748C40.6733 254.034 44.9944 249.54 45.6857 248.707C44.6015 250.278 34.4509 265.19 42.5431 271.994C51.1068 279.175 65.7828 258.543 65.7828 258.543C65.7828 258.543 74.1422 277.399 87.8597 275.105C87.132 275.884 86.3022 276.56 85.3928 277.116C73.2308 284.69 68.4698 270.611 68.2655 270.03C68.0141 270.705 60.0633 290.85 43.863 284.062C27.3328 277.289 36.5564 256.862 36.5564 256.862C36.5564 256.862 22.7289 264.012 19.4134 249.775C17.135 239.829 27.1129 229.348 39.5419 220.486Z" fill="#EFE7D4"/>
</g>
<path d="M101.687 241.527C105.223 220.44 114.431 198.237 114.431 198.237C114.431 198.237 174.14 222.969 174.486 245.989C174.515 247.047 174.404 248.103 174.156 249.132C170.919 263.085 157.594 256.501 157.044 256.234C157.327 256.894 165.954 276.755 149.706 283.402C133.239 290.316 125.304 269.355 125.304 269.355C125.304 269.355 120.59 284.188 108.177 276.457C99.5188 271.052 99.1574 256.58 101.687 241.527Z" fill="#E09F34"/>
<g style="mix-blend-mode:soft-light" opacity="0.6">
<path d="M101.687 241.526C101.687 242.532 100.996 271.208 114.069 267.704C126.2 264.452 126.09 258.277 125.98 257.129C126.31 258.984 129.704 276.739 140.247 275.812C151.372 274.838 147.161 249.854 147.161 249.854C147.161 249.854 166.441 257.318 174.486 245.973C174.515 247.031 174.404 248.087 174.156 249.116C170.919 263.069 157.594 256.485 157.044 256.218C157.327 256.878 165.954 276.74 149.706 283.386C133.239 290.3 125.304 269.339 125.304 269.339C125.304 269.339 120.59 284.172 108.177 276.441C99.5188 271.051 99.1574 256.58 101.687 241.526Z" fill="#EFE7D4"/>
</g>
<path d="M160.502 212.457C148.104 195.047 138.912 172.844 138.912 172.844C138.912 172.844 198.622 148.128 215.136 164.139C215.908 164.874 216.584 165.703 217.148 166.606C224.721 178.768 210.642 183.529 210.061 183.734C210.737 184.001 230.881 191.936 224.077 208.136C217.321 224.666 196.894 215.443 196.894 215.443C196.894 215.443 204.043 229.27 189.807 232.586C179.845 234.864 169.411 224.839 160.502 212.457Z" fill="#E09F34"/>
<g style="mix-blend-mode:soft-light" opacity="0.6">
<path d="M160.502 212.457C161.194 213.18 180.929 233.937 187.765 222.215C194.05 211.326 189.54 207.005 188.707 206.313C190.279 207.397 205.206 217.548 212.01 209.456C219.191 200.892 198.544 186.216 198.544 186.216C198.544 186.216 217.4 177.857 215.121 164.139C215.893 164.874 216.568 165.703 217.132 166.606C224.706 178.768 210.627 183.529 210.046 183.733C210.722 184.001 230.866 191.936 224.062 208.136C217.305 224.666 196.878 215.443 196.878 215.443C196.878 215.443 204.028 229.27 189.792 232.586C179.845 234.864 169.412 224.839 160.502 212.457Z" fill="#EFE7D4"/>
</g>
<path d="M181.542 150.312C160.47 146.777 138.268 137.569 138.268 137.569C138.268 137.569 162.984 77.8588 186.004 77.5131C187.061 77.4923 188.117 77.6032 189.147 77.8432C203.1 81.0801 196.516 94.4048 196.249 94.9547C196.909 94.6719 216.77 86.0454 223.417 102.308C230.315 118.776 209.369 126.695 209.369 126.695C209.369 126.695 224.203 131.409 216.456 143.823C211.066 152.559 196.595 152.842 181.542 150.312Z" fill="#E09F34"/>
<g style="mix-blend-mode:soft-light" opacity="0.6">
<path d="M181.542 150.312C182.547 150.312 211.224 151.003 207.72 137.93C204.451 125.8 198.292 125.925 197.145 126.02C198.999 125.705 216.739 122.296 215.828 111.768C214.853 100.627 189.869 104.838 189.869 104.838C189.869 104.838 197.333 85.5583 185.973 77.5131C187.03 77.4923 188.085 77.6032 189.115 77.8432C203.068 81.0801 196.485 94.4048 196.218 94.9547C196.877 94.6719 216.739 86.0454 223.386 102.308C230.284 118.776 209.338 126.695 209.338 126.695C209.338 126.695 224.171 131.409 216.425 143.823C211.066 152.559 196.595 152.842 181.542 150.312Z" fill="#EFE7D4"/>
</g>
<path d="M152.473 91.4976C135.047 103.848 112.844 113.103 112.844 113.103C112.844 113.103 88.1274 53.3932 104.139 36.8787C104.856 36.1076 105.67 35.4317 106.559 34.8675C118.705 27.3095 123.482 41.3727 123.67 41.954C123.938 41.2941 131.888 21.1342 148.089 27.938C164.697 34.7103 155.442 55.1374 155.442 55.1374C155.442 55.1374 169.27 47.9879 172.57 62.2397C174.879 72.1547 164.902 82.6354 152.473 91.4976Z" fill="#E09F34"/>
<g style="mix-blend-mode:soft-light" opacity="0.6">
<path d="M152.472 91.4976C153.195 90.8062 173.936 70.9919 162.23 64.2353C151.341 57.95 147.02 62.4597 146.328 63.2925C147.413 61.7212 157.563 46.7937 149.471 39.9899C140.907 32.809 126.231 53.4561 126.231 53.4561C126.231 53.4561 117.872 34.6003 104.233 36.8787C104.921 36.1138 105.702 35.4381 106.558 34.8675C118.705 27.3095 123.481 41.3727 123.67 41.954C123.937 41.2941 131.888 21.1342 148.088 27.938C164.697 34.7103 155.442 55.1374 155.442 55.1374C155.442 55.1374 169.269 47.9879 172.569 62.2397C174.879 72.1547 164.901 82.6354 152.472 91.4976Z" fill="#EFE7D4"/>
</g>
<path d="M30.6025 130.56C18.1577 118.681 12.611 101.491 7.53564 84.9923C25.1249 82.1589 43.1362 86.0516 57.9855 95.8958C72.8347 105.74 83.4334 120.814 87.6725 138.118C89.9981 147.405 87.5468 149.432 78.2446 148.63C70.0921 148.006 62.037 146.457 54.235 144.011C45.4524 141.347 37.3774 136.751 30.6025 130.56Z" fill="#BFC34C"/>
<g style="mix-blend-mode:multiply" opacity="0.9">
<path d="M83.7909 148.866C83.7909 148.866 16.3031 116.528 27.5537 102.465C41.8841 84.552 88.442 146.462 88.442 146.462L83.7909 148.866Z" fill="#A4AA01"/>
</g>
<path d="M70.5923 221.398C58.7132 233.858 41.523 239.389 25.0242 244.465C22.1989 226.874 26.0969 208.865 35.9431 194.017C45.7893 179.169 60.8625 168.57 78.166 164.328C87.4524 162.002 89.4794 164.453 88.6623 173.755C88.0437 181.913 86.4991 189.973 84.0584 197.781C81.3861 206.558 76.7852 214.628 70.5923 221.398Z" fill="#BFC34C"/>
<g style="mix-blend-mode:multiply" opacity="0.9">
<path d="M88.8809 168.272C88.8809 168.272 56.5433 235.838 42.4801 224.509C24.5514 210.179 86.4768 163.621 86.4768 163.621L88.8809 168.272Z" fill="#A4AA01"/>
</g>
<path d="M161.414 181.408C173.859 193.287 179.405 210.493 184.481 226.976C166.89 229.801 148.881 225.904 134.033 216.057C119.185 206.211 108.586 191.138 104.344 173.834C102.018 164.548 104.47 162.521 113.772 163.338C121.924 163.957 129.979 165.501 137.781 167.942C146.563 170.617 154.636 175.217 161.414 181.408Z" fill="#BFC34C"/>
<g style="mix-blend-mode:multiply" opacity="0.9">
<path d="M108.224 163.118C108.224 163.118 175.696 195.456 164.461 209.519C150.131 227.448 103.573 165.522 103.573 165.522L108.224 163.118Z" fill="#A4AA01"/>
</g>
<path d="M121.424 90.5865C133.303 78.1417 150.494 72.595 166.992 67.5197C169.818 85.1101 165.92 103.12 156.073 117.968C146.227 132.815 131.154 143.414 113.851 147.657C104.564 149.982 102.537 147.531 103.354 138.229C103.971 130.071 105.516 122.011 107.958 114.203C110.628 105.425 115.23 97.3554 121.424 90.5865Z" fill="#BFC34C"/>
<g style="mix-blend-mode:multiply" opacity="0.9">
<path d="M103.134 143.775C103.134 143.775 135.472 76.3028 149.535 87.5377C167.464 101.868 105.538 148.426 105.538 148.426L103.134 143.775Z" fill="#A4AA01"/>
</g>
<path d="M56.1514 103.848C54.1087 84.0649 70.2932 94.5613 70.2932 94.5613C70.2932 94.5613 58.807 75.4227 66.6478 69.546C74.4886 63.6693 81.7481 70.7402 81.7481 70.7402C81.7481 70.7402 87.452 53.4557 99.4568 55.2313C111.462 57.0069 111.917 73.1443 111.917 73.1443C111.917 73.1443 123.922 64.1249 129.202 74.5113C134.481 84.8977 118.423 101.004 118.423 101.004C118.423 101.004 132.454 88.2289 135.801 100.642C139.148 113.056 102.615 141.559 95.937 143.633C89.259 145.707 58.2413 123.898 56.1514 103.848Z" fill="#D05663"/>
<g style="mix-blend-mode:multiply" opacity="0.5">
<path d="M83.823 139.14C83.823 139.14 63.9459 123.05 70.3726 113.151C76.7992 103.251 90.2968 119.074 90.2968 119.074C90.2968 119.074 77.7263 86.831 89.8725 80.86C102.019 74.8891 107.785 97.0289 98.9233 119.766C98.9233 119.766 109.263 103.346 117.355 111.768C125.447 120.19 100.07 144.137 95.9378 143.634C91.8053 143.131 83.823 139.14 83.823 139.14Z" fill="#D05663"/>
</g>
<path d="M43.7849 195.848C24.0021 197.891 34.4984 181.706 34.4984 181.706C34.4984 181.706 15.3599 193.193 9.48317 185.352C3.60647 177.511 10.6774 170.267 10.6774 170.267C10.6774 170.267 -6.60706 164.548 -4.83147 152.543C-3.05589 140.538 13.0815 140.082 13.0815 140.082C13.0815 140.082 4.04644 128.078 14.4485 122.798C24.8506 117.518 40.9251 133.577 40.9251 133.577C40.9251 133.577 28.166 119.545 40.5794 116.198C52.9928 112.852 81.5749 149.416 83.6491 156.063C85.7232 162.709 63.9134 193.758 43.7849 195.848Z" fill="#D05663"/>
<g style="mix-blend-mode:multiply" opacity="0.5">
<path d="M79.1557 168.178C79.1557 168.178 63.0654 188.055 53.1347 181.628C43.2041 175.202 59.0586 161.704 59.0586 161.704C59.0586 161.704 26.8153 174.274 20.8286 162.144C14.8419 150.013 37.0131 144.215 59.7342 153.077C59.7342 153.077 43.314 142.738 51.752 134.662C60.1899 126.585 84.121 151.852 83.6182 156.063C83.1154 160.274 79.1557 168.178 79.1557 168.178Z" fill="#D05663"/>
</g>
<path d="M135.865 208.215C137.907 228.013 121.723 217.501 121.723 217.501C121.723 217.501 133.225 236.64 125.384 242.532C117.543 248.425 110.284 241.322 110.284 241.322C110.284 241.322 104.564 258.607 92.5592 256.831C80.5544 255.056 80.0987 238.918 80.0987 238.918C80.0987 238.918 68.1096 247.953 62.8143 237.551C57.5189 227.149 73.562 211.075 73.562 211.075C73.562 211.075 59.5302 223.849 56.1833 211.42C52.8364 198.991 89.3851 170.425 96.0475 168.351C102.71 166.276 133.775 188.086 135.865 208.215Z" fill="#D05663"/>
<g style="mix-blend-mode:multiply" opacity="0.5">
<path d="M108.131 172.844C108.131 172.844 128.008 188.934 121.581 198.833C115.154 208.733 101.657 192.91 101.657 192.91C101.657 192.91 114.227 225.169 102.081 231.14C89.9348 237.111 84.1523 214.955 93.0303 192.234C93.0303 192.234 82.691 208.654 74.5988 200.232C66.5065 191.81 91.8832 167.847 96 168.35C100.117 168.853 108.131 172.844 108.131 172.844Z" fill="#D05663"/>
</g>
<path d="M148.23 116.151C168.013 114.093 157.516 130.293 157.516 130.293C157.516 130.293 176.655 118.791 182.532 126.632C188.408 134.473 181.337 141.732 181.337 141.732C181.337 141.732 198.622 147.452 196.846 159.456C195.071 171.461 178.933 171.917 178.933 171.917C178.933 171.917 187.968 183.906 177.566 189.201C167.164 194.497 151.09 178.422 151.09 178.422C151.09 178.422 163.849 192.454 151.435 195.801C139.022 199.148 110.44 162.599 108.366 155.937C106.292 149.274 128.101 118.225 148.23 116.151Z" fill="#D05663"/>
<g style="mix-blend-mode:multiply" opacity="0.5">
<path d="M112.844 143.822C112.844 143.822 128.934 123.93 138.834 130.356C148.733 136.783 132.91 150.28 132.91 150.28C132.91 150.28 165.153 137.71 171.124 149.856C177.095 162.002 154.955 167.785 132.218 158.907C132.218 158.907 148.639 169.246 140.216 177.338C131.794 185.431 107.847 160.133 108.35 155.937C108.853 151.742 112.844 143.822 112.844 143.822Z" fill="#D05663"/>
</g>
<path d="M81.7944 132.226C83.6097 131 85.8374 130.544 87.9882 130.96C90.139 131.375 92.037 132.627 93.265 134.441C93.7489 133.192 94.4741 132.05 95.3993 131.081C96.3245 130.112 97.4315 129.334 98.6572 128.793C99.8828 128.252 101.203 127.957 102.543 127.926C103.882 127.895 105.215 128.128 106.464 128.612C107.713 129.096 108.855 129.821 109.824 130.746C110.794 131.671 111.571 132.778 112.112 134.004C112.654 135.229 112.948 136.55 112.979 137.889C113.011 139.229 112.777 140.561 112.294 141.811C114.847 142.107 117.237 143.214 119.114 144.97C120.99 146.727 122.254 149.039 122.718 151.566C123.183 154.094 122.823 156.704 121.694 159.013C120.564 161.321 118.723 163.206 116.442 164.39C117.138 168.27 116.342 172.27 114.213 175.588C112.083 178.905 108.778 181.295 104.961 182.277C101.143 183.259 97.0951 182.761 93.6291 180.884C90.163 179.006 87.5351 175.887 86.2727 172.153C83.3814 177.322 74.9907 178.077 71.2352 173.488C67.4798 168.9 69.8525 160.824 75.4935 159.001C69.7582 159.457 64.6671 153.03 66.3956 147.546C68.124 142.062 75.1164 140.145 79.7203 142.832C78.0704 139.375 78.4475 134.693 81.7944 132.226Z" fill="#E09F34"/>
<path d="M95.9997 168.225C102.751 168.225 108.225 162.751 108.225 156C108.225 149.248 102.751 143.775 95.9997 143.775C89.2481 143.775 83.7749 149.248 83.7749 156C83.7749 162.751 89.2481 168.225 95.9997 168.225Z" fill="#E09F34"/>
<path d="M209.414 209.566C203.191 203.626 200.418 195.031 197.88 186.782C206.675 185.365 215.681 187.312 223.105 192.234C230.53 197.156 235.829 204.693 237.949 213.345C239.112 217.988 237.886 219.002 233.235 218.601C229.156 218.29 225.126 217.515 221.222 216.291C216.834 214.958 212.799 212.661 209.414 209.566Z" fill="#D05663"/>
<g style="mix-blend-mode:multiply" opacity="0.5">
<path d="M236.008 218.711C236.008 218.711 202.272 202.55 207.89 195.511C215.055 186.554 238.334 217.509 238.334 217.509L236.008 218.711Z" fill="#D05663"/>
</g>
<path d="M200.253 250.278C191.611 250.483 183.613 246.35 176 242.343C181.222 235.121 188.972 230.13 197.707 228.364C206.442 226.598 215.522 228.187 223.139 232.813C227.24 235.272 227.068 236.859 223.516 239.884C220.415 242.55 217.02 244.853 213.397 246.751C209.334 248.892 204.843 250.097 200.253 250.278Z" fill="#D05663"/>
<g style="mix-blend-mode:multiply" opacity="0.5">
<path d="M225.496 237.959C225.496 237.959 190.212 250.389 189.215 241.44C187.942 230.04 226.274 235.445 226.274 235.445L225.496 237.959Z" fill="#D05663"/>
</g>
<path d="M222.574 285.586C216.634 291.808 208.039 294.582 199.79 297.12C198.377 288.324 200.326 279.32 205.249 271.896C210.172 264.472 217.709 259.172 226.361 257.051C231.004 255.888 232.017 257.114 231.609 261.765C231.3 265.844 230.528 269.874 229.307 273.778C227.972 278.167 225.671 282.202 222.574 285.586Z" fill="#D05663"/>
<g style="mix-blend-mode:multiply" opacity="0.5">
<path d="M231.719 258.992C231.719 258.992 215.55 292.704 208.519 287.11C199.555 279.945 230.517 256.666 230.517 256.666L231.719 258.992Z" fill="#D05663"/>
</g>
<path d="M263.302 294.747C263.506 303.35 259.374 311.387 255.375 319C248.153 313.778 243.162 306.028 241.396 297.293C239.63 288.558 241.218 279.478 245.845 271.861C248.304 267.759 249.883 267.932 252.916 271.483C255.581 274.585 257.885 277.98 259.782 281.603C261.921 285.667 263.123 290.158 263.302 294.747Z" fill="#D05663"/>
<g style="mix-blend-mode:multiply" opacity="0.5">
<path d="M250.967 269.48C250.967 269.48 263.396 304.772 254.447 305.769C243.048 307.034 248.453 268.702 248.453 268.702L250.967 269.48Z" fill="#D05663"/>
</g>
<path d="M298.562 272.426C304.792 278.366 307.558 286.969 310.103 295.21C301.308 296.623 292.303 294.674 284.879 289.751C277.455 284.828 272.156 277.291 270.035 268.639C268.872 263.996 270.098 262.983 274.749 263.391C278.832 263.691 282.867 264.455 286.777 265.67C291.16 267.014 295.187 269.323 298.562 272.426Z" fill="#D05663"/>
<g style="mix-blend-mode:multiply" opacity="0.5">
<path d="M272 263.281C272 263.281 305.736 279.45 300.111 286.482C292.953 295.446 269.674 264.483 269.674 264.483L272 263.281Z" fill="#D05663"/>
</g>
<path d="M307.755 231.698C316.358 231.493 324.395 235.626 332 239.633C326.778 246.843 319.035 251.825 310.309 253.59C301.583 255.354 292.513 253.771 284.9 249.155C280.799 246.696 280.972 245.117 284.515 242.084C287.618 239.432 291.013 237.141 294.634 235.257C298.686 233.103 303.17 231.887 307.755 231.698Z" fill="#D05663"/>
<g style="mix-blend-mode:multiply" opacity="0.5">
<path d="M282.488 244.033C282.488 244.033 317.772 231.604 318.769 240.56C320.042 251.96 281.71 246.547 281.71 246.547L282.488 244.033Z" fill="#D05663"/>
</g>
<path d="M285.434 196.414C291.374 190.184 299.969 187.418 308.218 184.873C309.635 193.667 307.688 202.673 302.766 210.097C297.844 217.522 290.307 222.821 281.655 224.941C277.012 226.104 275.998 224.886 276.399 220.227C276.714 216.149 277.489 212.119 278.709 208.214C280.042 203.828 282.34 199.796 285.434 196.414Z" fill="#D05663"/>
<g style="mix-blend-mode:multiply" opacity="0.5">
<path d="M276.289 223.001C276.289 223.001 292.458 189.264 299.489 194.89C308.454 202.047 277.491 225.334 277.491 225.334L276.289 223.001Z" fill="#D05663"/>
</g>
<path d="M244.706 187.245C244.494 178.642 248.634 170.605 252.633 163C259.847 168.219 264.831 175.962 266.597 184.689C268.363 193.415 266.78 202.487 262.163 210.1C259.704 214.209 258.125 214.028 255.092 210.485C252.448 207.377 250.163 203.979 248.281 200.358C246.123 196.31 244.901 191.829 244.706 187.245Z" fill="#D05663"/>
<g style="mix-blend-mode:multiply" opacity="0.5">
<path d="M257.04 212.512C257.04 212.512 244.611 177.228 253.56 176.231C264.96 174.958 259.554 213.29 259.554 213.29L257.04 212.512Z" fill="#D05663"/>
</g>
<path d="M251.163 198.229C249.396 208.764 244.792 219.866 244.792 219.866C244.792 219.866 214.937 207.507 214.764 195.997C214.75 195.469 214.805 194.94 214.929 194.426C216.547 187.449 223.21 190.741 223.485 190.883C223.343 190.545 219.03 180.614 227.154 177.291C235.387 173.842 239.355 184.323 239.355 184.323C239.355 184.323 241.712 176.906 247.919 180.771C252.248 183.498 252.428 190.702 251.163 198.229Z" fill="#E09F34"/>
<g style="mix-blend-mode:soft-light" opacity="0.6">
<path d="M251.163 198.229C251.163 197.734 251.509 183.388 244.972 185.14C238.907 186.774 238.962 189.893 239.017 190.435C238.852 189.5 237.155 180.63 231.883 181.086C226.321 181.573 228.426 194.065 228.426 194.065C228.426 194.065 218.786 190.333 214.764 196.013C214.75 195.484 214.805 194.956 214.929 194.442C216.547 187.465 223.21 190.757 223.485 190.899C223.343 190.561 219.03 180.63 227.154 177.307C235.387 173.858 239.355 184.338 239.355 184.338C239.355 184.338 241.712 176.922 247.919 180.787C252.248 183.498 252.428 190.702 251.163 198.229Z" fill="#EFE7D4"/>
</g>
<path d="M221.757 212.763C227.956 221.468 232.552 232.57 232.552 232.57C232.552 232.57 202.713 244.936 194.447 236.922C194.058 236.558 193.72 236.143 193.442 235.689C189.655 229.616 196.694 227.227 196.985 227.133C196.647 226.999 186.575 223.024 189.977 214.924C193.355 206.667 203.569 211.27 203.569 211.27C203.569 211.27 199.994 204.357 207.112 202.707C212.085 201.568 217.326 206.549 221.757 212.763Z" fill="#E09F34"/>
<g style="mix-blend-mode:soft-light" opacity="0.6">
<path d="M221.757 212.764C221.411 212.402 211.504 202.032 208.125 207.885C204.983 213.329 207.23 215.498 207.654 215.836C206.868 215.293 199.405 210.226 196.003 214.264C192.412 218.554 202.712 225.923 202.712 225.923C202.712 225.923 193.284 230.103 194.424 236.962C194.034 236.598 193.696 236.183 193.418 235.728C189.631 229.655 196.671 227.267 196.961 227.173C196.623 227.039 186.551 223.064 189.953 214.963C193.331 206.706 203.545 211.31 203.545 211.31C203.545 211.31 199.97 204.396 207.088 202.747C212.085 201.568 217.325 206.549 221.757 212.764Z" fill="#EFE7D4"/>
</g>
<path d="M211.236 243.836C221.772 245.612 232.873 250.208 232.873 250.208C232.873 250.208 220.515 280.063 209.005 280.235C208.477 280.248 207.949 280.196 207.434 280.078C200.457 278.452 203.749 271.79 203.883 271.515C203.553 271.656 193.622 275.977 190.299 267.846C186.85 259.612 197.322 255.644 197.322 255.644C197.322 255.644 189.906 253.287 193.779 247.081C196.474 242.752 203.71 242.571 211.236 243.836Z" fill="#E09F34"/>
<g style="mix-blend-mode:soft-light" opacity="0.6">
<path d="M211.236 243.836C210.733 243.836 196.395 243.49 198.147 250.027C199.781 256.092 202.861 256.037 203.435 255.982C202.508 256.147 193.63 257.844 194.093 263.116C194.58 268.678 207.072 266.573 207.072 266.573C207.072 266.573 203.34 276.205 208.997 280.235C208.469 280.248 207.941 280.196 207.426 280.078C200.449 278.452 203.741 271.79 203.875 271.515C203.545 271.656 193.614 275.977 190.291 267.846C186.842 259.612 197.314 255.644 197.314 255.644C197.314 255.644 189.898 253.287 193.771 247.081C196.474 242.752 203.71 242.571 211.236 243.836Z" fill="#EFE7D4"/>
</g>
<path d="M225.771 273.243C234.476 267.045 245.577 262.448 245.577 262.448C245.577 262.448 257.935 292.303 249.93 300.561C249.566 300.95 249.151 301.288 248.696 301.566C242.615 305.353 240.235 298.314 240.133 298.023C240.007 298.361 236.031 308.433 227.931 305.039C219.666 301.653 224.278 291.439 224.278 291.439C224.278 291.439 217.364 295.014 215.706 287.896C214.567 282.915 219.556 277.674 225.771 273.243Z" fill="#E09F34"/>
<g style="mix-blend-mode:soft-light" opacity="0.6">
<path d="M225.771 273.243C225.409 273.589 215.031 283.457 220.892 286.874C226.336 290.017 228.497 287.77 228.843 287.354C228.301 288.139 223.225 295.595 227.271 298.997C231.553 302.587 238.891 292.272 238.891 292.272C238.891 292.272 243.071 301.7 249.93 300.553C249.566 300.942 249.151 301.28 248.696 301.558C242.615 305.345 240.235 298.306 240.133 298.015C240.007 298.353 236.031 308.425 227.931 305.031C219.666 301.645 224.278 291.431 224.278 291.431C224.278 291.431 217.364 295.006 215.706 287.888C214.567 282.915 219.556 277.674 225.771 273.243Z" fill="#EFE7D4"/>
</g>
<path d="M256.844 283.763C258.611 273.22 263.215 262.119 263.215 262.119C263.215 262.119 293.07 274.485 293.243 285.995C293.257 286.523 293.202 287.052 293.078 287.566C291.46 294.543 284.797 291.251 284.522 291.117C284.664 291.447 288.977 301.378 280.853 304.701C272.62 308.158 268.652 297.677 268.652 297.677C268.652 297.677 266.295 305.094 260.088 301.228C255.759 298.526 255.579 291.29 256.844 283.763Z" fill="#E09F34"/>
<g style="mix-blend-mode:soft-light" opacity="0.6">
<path d="M256.844 283.763C256.844 284.266 256.498 298.604 263.035 296.852C269.1 295.226 269.045 292.138 268.99 291.565C269.155 292.492 270.852 301.37 276.124 300.906C281.686 300.419 279.58 287.927 279.58 287.927C279.58 287.927 289.22 291.659 293.243 285.987C293.257 286.515 293.202 287.044 293.078 287.558C291.46 294.535 284.797 291.243 284.522 291.109C284.664 291.439 288.977 301.37 280.853 304.693C272.62 308.15 268.652 297.669 268.652 297.669C268.652 297.669 266.295 305.086 260.088 301.22C255.759 298.526 255.579 291.29 256.844 283.763Z" fill="#EFE7D4"/>
</g>
<path d="M286.251 269.229C280.052 260.524 275.456 249.422 275.456 249.422C275.456 249.422 305.311 237.064 313.568 245.07C313.954 245.437 314.292 245.851 314.574 246.303C318.361 252.384 311.321 254.765 311.031 254.867C311.368 255 321.44 258.968 318.039 267.068C314.66 275.333 304.447 270.721 304.447 270.721C304.447 270.721 308.021 277.635 300.903 279.293C295.922 280.432 290.706 275.42 286.251 269.229Z" fill="#E09F34"/>
<g style="mix-blend-mode:soft-light" opacity="0.6">
<path d="M286.251 269.229C286.597 269.59 296.464 279.968 299.882 274.107C303.025 268.663 300.77 266.502 300.353 266.157C301.139 266.699 308.603 271.774 312.005 267.728C315.595 263.446 305.272 256.108 305.272 256.108C305.272 256.108 314.7 251.928 313.56 245.07C313.946 245.437 314.284 245.851 314.566 246.303C318.353 252.384 311.313 254.765 311.023 254.867C311.361 255 321.433 258.968 318.031 267.068C314.652 275.333 304.439 270.721 304.439 270.721C304.439 270.721 308.014 277.635 300.896 279.293C295.922 280.432 290.706 275.419 286.251 269.229Z" fill="#EFE7D4"/>
</g>
<path d="M296.771 238.156C286.235 236.388 275.134 231.784 275.134 231.784C275.134 231.784 287.492 201.929 299.002 201.757C299.531 201.746 300.058 201.802 300.573 201.922C307.55 203.54 304.258 210.202 304.124 210.477C304.454 210.336 314.385 206.023 317.708 214.154C321.158 222.388 310.685 226.348 310.685 226.348C310.685 226.348 318.101 228.705 314.228 234.911C311.533 239.279 304.297 239.421 296.771 238.156Z" fill="#E09F34"/>
<g style="mix-blend-mode:soft-light" opacity="0.6">
<path d="M296.771 238.156C297.274 238.156 311.612 238.502 309.86 231.965C308.226 225.9 305.146 225.963 304.573 226.01C305.5 225.853 314.37 224.148 313.914 218.884C313.427 213.314 300.935 215.419 300.935 215.419C300.935 215.419 304.667 205.779 298.987 201.757C299.515 201.746 300.043 201.802 300.558 201.922C307.534 203.54 304.243 210.202 304.109 210.477C304.439 210.336 314.37 206.023 317.693 214.154C321.142 222.388 310.669 226.348 310.669 226.348C310.669 226.348 318.086 228.705 314.213 234.911C311.533 239.279 304.298 239.421 296.771 238.156Z" fill="#EFE7D4"/>
</g>
<path d="M282.236 208.749C273.523 214.924 262.422 219.552 262.422 219.552C262.422 219.552 250.064 189.697 258.07 181.439C258.428 181.054 258.835 180.716 259.279 180.434C265.353 176.655 267.741 183.686 267.835 183.977C267.969 183.647 271.944 173.567 280.044 176.969C288.349 180.355 283.721 190.569 283.721 190.569C283.721 190.569 290.635 186.994 292.285 194.12C293.44 199.077 288.451 204.318 282.236 208.749Z" fill="#E09F34"/>
<g style="mix-blend-mode:soft-light" opacity="0.6">
<path d="M282.236 208.749C282.597 208.403 292.968 198.496 287.115 195.118C281.67 191.975 279.51 194.23 279.164 194.646C279.706 193.861 284.781 186.397 280.735 182.995C276.453 179.405 269.115 189.728 269.115 189.728C269.115 189.728 264.936 180.3 258.116 181.439C258.46 181.057 258.851 180.719 259.279 180.434C265.352 176.655 267.74 183.686 267.835 183.977C267.968 183.647 271.944 173.567 280.044 176.969C288.348 180.355 283.721 190.569 283.721 190.569C283.721 190.569 290.634 186.994 292.284 194.12C293.439 199.077 288.45 204.318 282.236 208.749Z" fill="#EFE7D4"/>
</g>
<path d="M221.301 228.28C215.079 222.341 212.306 213.746 209.768 205.496C218.563 204.079 227.568 206.026 234.993 210.948C242.418 215.87 247.717 223.407 249.836 232.059C250.999 236.702 249.774 237.716 245.123 237.315C241.046 237.003 237.019 236.228 233.118 235.005C228.726 233.674 224.689 231.376 221.301 228.28Z" fill="#BFC34C"/>
<g style="mix-blend-mode:multiply" opacity="0.9">
<path d="M247.896 237.433C247.896 237.433 214.152 221.264 219.777 214.233C226.942 205.276 250.221 236.231 250.221 236.231L247.896 237.433Z" fill="#A4AA01"/>
</g>
<path d="M241.296 273.699C235.357 279.929 226.762 282.695 218.512 285.232C217.1 276.437 219.049 267.432 223.972 260.008C228.895 252.584 236.431 247.285 245.083 245.164C249.726 244.001 250.74 245.227 250.331 249.878C250.022 253.956 249.25 257.986 248.029 261.89C246.693 266.279 244.393 270.314 241.296 273.699Z" fill="#BFC34C"/>
<g style="mix-blend-mode:multiply" opacity="0.9">
<path d="M250.44 247.136C250.44 247.136 234.272 280.919 227.24 275.254C218.276 268.089 249.238 244.81 249.238 244.81L250.44 247.136Z" fill="#A4AA01"/>
</g>
<path d="M286.707 253.704C292.929 259.644 295.703 268.247 298.24 276.488C289.445 277.901 280.44 275.952 273.016 271.029C265.592 266.106 260.293 258.569 258.172 249.917C257.009 245.274 258.235 244.26 262.886 244.669C266.962 244.978 270.989 245.751 274.891 246.971C279.281 248.308 283.318 250.608 286.707 253.704Z" fill="#BFC34C"/>
<g style="mix-blend-mode:multiply" opacity="0.9">
<path d="M260.112 244.559C260.112 244.559 293.848 260.728 288.231 267.759C281.066 276.724 257.787 245.761 257.787 245.761L260.112 244.559Z" fill="#A4AA01"/>
</g>
<path d="M266.712 208.293C272.652 202.071 281.247 199.297 289.496 196.76C290.909 205.555 288.96 214.56 284.037 221.984C279.114 229.408 271.577 234.707 262.925 236.828C258.282 237.991 257.269 236.765 257.677 232.114C257.986 228.036 258.758 224.005 259.979 220.102C261.314 215.712 263.615 211.678 266.712 208.293Z" fill="#BFC34C"/>
<g style="mix-blend-mode:multiply" opacity="0.9">
<path d="M257.567 234.887C257.567 234.887 273.736 201.151 280.767 206.769C289.732 213.934 258.769 237.213 258.769 237.213L257.567 234.887Z" fill="#A4AA01"/>
</g>
<path d="M234.076 214.924C233.055 205.032 241.147 210.281 241.147 210.281C241.147 210.281 235.404 200.711 239.324 197.773C243.245 194.835 246.874 198.37 246.874 198.37C246.874 198.37 249.726 189.728 255.729 190.616C261.731 191.503 261.959 199.572 261.959 199.572C261.959 199.572 267.961 195.063 270.601 200.256C273.241 205.449 265.212 213.502 265.212 213.502C265.212 213.502 272.227 207.114 273.901 213.321C275.574 219.528 257.308 233.78 253.969 234.817C250.63 235.854 235.121 224.949 234.076 214.924Z" fill="#D05663"/>
<g style="mix-blend-mode:multiply" opacity="0.5">
<path d="M247.911 232.57C247.911 232.57 237.973 224.525 241.186 219.575C244.399 214.626 251.148 222.537 251.148 222.537C251.148 222.537 244.863 206.416 250.936 203.43C257.009 200.445 259.892 211.514 255.461 222.883C255.461 222.883 260.631 214.673 264.677 218.884C268.723 223.095 256.035 235.068 253.969 234.817C251.902 234.566 247.911 232.57 247.911 232.57Z" fill="#D05663"/>
</g>
<path d="M227.892 260.924C218.001 261.945 223.249 253.853 223.249 253.853C223.249 253.853 213.68 259.596 210.741 255.676C207.803 251.755 211.338 248.134 211.338 248.134C211.338 248.134 202.696 245.274 203.584 239.271C204.472 233.269 212.54 233.041 212.54 233.041C212.54 233.041 208.023 227.039 213.224 224.399C218.425 221.759 226.462 229.789 226.462 229.789C226.462 229.789 220.083 222.773 226.289 221.099C232.496 219.426 246.787 237.708 247.824 241.031C248.861 244.355 237.956 259.879 227.892 260.924Z" fill="#D05663"/>
<g style="mix-blend-mode:multiply" opacity="0.5">
<path d="M245.578 247.089C245.578 247.089 237.533 257.027 232.567 253.814C227.602 250.601 235.529 243.852 235.529 243.852C235.529 243.852 219.408 250.137 216.414 244.072C213.421 238.007 224.507 235.108 235.867 239.539C235.867 239.539 227.657 234.369 231.876 230.331C236.095 226.293 248.061 238.926 247.809 241.031C247.558 243.137 245.578 247.089 245.578 247.089Z" fill="#D05663"/>
</g>
<path d="M273.932 267.107C274.953 277.007 266.861 271.751 266.861 271.751C266.861 271.751 272.612 281.32 268.692 284.266C264.771 287.212 261.142 283.661 261.142 283.661C261.142 283.661 258.282 292.303 252.279 291.416C246.277 290.528 246.049 282.459 246.049 282.459C246.049 282.459 240.055 286.977 237.407 281.776C234.759 276.575 242.781 268.537 242.781 268.537C242.781 268.537 235.765 274.925 234.091 268.71C232.418 262.496 250.692 248.212 254.023 247.175C257.355 246.138 272.887 257.043 273.932 267.107Z" fill="#D05663"/>
<g style="mix-blend-mode:multiply" opacity="0.5">
<path d="M260.065 249.422C260.065 249.422 270.004 257.467 266.79 262.417C263.577 267.366 256.828 259.455 256.828 259.455C256.828 259.455 263.114 275.584 257.041 278.57C250.967 281.555 248.076 270.478 252.515 259.117C252.515 259.117 247.346 267.327 243.299 263.116C239.253 258.905 251.942 246.924 254 247.175C256.058 247.426 260.065 249.422 260.065 249.422Z" fill="#D05663"/>
</g>
<path d="M280.115 221.075C290.006 220.046 284.758 228.146 284.758 228.146C284.758 228.146 294.327 222.395 297.266 226.316C300.204 230.236 296.669 233.866 296.669 233.866C296.669 233.866 305.311 236.726 304.423 242.728C303.535 248.731 295.467 248.958 295.467 248.958C295.467 248.958 299.984 254.953 294.783 257.601C289.582 260.248 281.545 252.211 281.545 252.211C281.545 252.211 287.924 259.227 281.718 260.9C275.511 262.574 261.22 244.299 260.183 240.968C259.146 237.637 270.051 222.113 280.115 221.075Z" fill="#D05663"/>
<g style="mix-blend-mode:multiply" opacity="0.5">
<path d="M262.422 234.911C262.422 234.911 270.467 224.965 275.417 228.178C280.366 231.391 272.455 238.14 272.455 238.14C272.455 238.14 288.576 231.855 291.562 237.928C294.547 244.001 283.477 246.892 272.109 242.453C272.109 242.453 280.319 247.623 276.108 251.669C271.897 255.715 259.923 243.066 260.175 240.969C260.426 238.871 262.422 234.911 262.422 234.911Z" fill="#D05663"/>
</g>
<path d="M246.897 229.113C247.805 228.5 248.919 228.272 249.994 228.48C251.07 228.687 252.019 229.314 252.633 230.221C252.875 229.596 253.237 229.025 253.7 228.54C254.162 228.056 254.716 227.667 255.329 227.396C255.942 227.126 256.602 226.978 257.272 226.963C257.941 226.947 258.608 227.064 259.232 227.306C259.857 227.548 260.428 227.91 260.912 228.373C261.397 228.836 261.786 229.389 262.056 230.002C262.327 230.615 262.474 231.275 262.49 231.945C262.506 232.614 262.389 233.281 262.147 233.905C263.424 234.053 264.619 234.607 265.557 235.485C266.495 236.363 267.127 237.519 267.359 238.783C267.592 240.047 267.412 241.352 266.847 242.506C266.282 243.661 265.362 244.603 264.221 245.195C264.569 247.135 264.171 249.135 263.107 250.794C262.042 252.453 260.389 253.647 258.481 254.138C256.572 254.63 254.548 254.381 252.815 253.442C251.082 252.503 249.768 250.944 249.137 249.076C247.691 251.661 243.496 252.038 241.618 249.744C239.74 247.45 240.926 243.412 243.747 242.5C240.879 242.728 238.334 239.515 239.198 236.773C240.062 234.031 243.558 233.073 245.86 234.416C245.035 232.688 245.224 230.346 246.897 229.113Z" fill="#E09F34"/>
<path d="M254 247.112C257.376 247.112 260.112 244.376 260.112 241C260.112 237.624 257.376 234.888 254 234.888C250.624 234.888 247.888 237.624 247.888 241C247.888 244.376 250.624 247.112 254 247.112Z" fill="#E09F34"/>
</svg>
