<svg xmlns="http://www.w3.org/2000/svg" xmlns:svg="http://www.w3.org/2000/svg" version="1.1" id="svg2" width="314.9183286488868" height="317.5426480542942" viewBox="0 0 359.97333 362.63467">
  <defs id="defs6"/>
  <g id="g8" transform="matrix(1.3333333,0,0,-1.3333333,-381.53333,576.128)">
    <g id="g10">
      <path d="m 348.3981,247.2871 c -0.1406,0.2115 -0.252,0.4283 -0.3305,0.6514 -0.0794,0.2191 -0.1171,0.4283 -0.1171,0.629 0,1.1203 0.7384,2.0775 2.2161,2.8642 1.4788,0.7897 3.2635,1.1857 5.3521,1.1857 2.2867,0 4.2375,-0.4176 5.8516,-1.2481 1.614,-0.8325 2.4199,-1.836 2.4199,-3.0164 0,-0.07 -0.0354,-0.1791 -0.106,-0.32 -0.0731,-0.1406 -0.1794,-0.3197 -0.32,-0.5343 h -1.9208 c 0.1576,0.2276 0.2735,0.4099 0.3529,0.5451 0.0785,0.136 0.1162,0.2392 0.1162,0.3092 0,0.7682 -0.6236,1.4216 -1.8739,1.9616 -1.2513,0.5397 -2.759,0.8082 -4.5199,0.8082 -1.565,0 -2.8998,-0.2469 -4.0093,-0.7461 -1.1067,-0.4966 -1.6625,-1.101 -1.6625,-1.8091 0,-0.2007 0.0408,-0.4099 0.119,-0.629 0.0763,-0.2231 0.1953,-0.4399 0.3501,-0.6514 h 1.7685 v -1.7062 h -1.7033 v -8.952 h -1.8768 v 8.952 h -1.7042 v 1.7062 z" style="fill:#0c458a;fill-opacity:1;fill-rule:nonzero;stroke:none" id="path12"/>
      <path d="m 354.9212,240.2629 c 0.3259,-0.2906 0.7242,-0.4369 1.1942,-0.4369 0.5119,0 0.9519,0.1463 1.3209,0.4369 0.3683,0.29 0.5559,0.6429 0.5559,1.055 0,0.4122 -0.1876,0.7651 -0.5559,1.0548 -0.369,0.2908 -0.809,0.4368 -1.3209,0.4368 -0.47,0 -0.8683,-0.146 -1.1942,-0.4368 -0.3283,-0.2897 -0.4907,-0.6426 -0.4907,-1.0548 0,-0.4121 0.1624,-0.765 0.4907,-1.055 z m 6.6515,7.0228 v -1.7033 h -1.7065 v -8.9553 h -1.874 v 2.0271 c -0.2282,-0.2415 -0.5213,-0.4292 -0.8765,-0.5559 -0.3551,-0.1278 -0.7457,-0.1899 -1.1718,-0.1899 -0.9383,0 -1.7356,0.3336 -2.3975,1.0004 -0.6599,0.6672 -0.9905,1.4703 -0.9905,2.4091 0,0.9389 0.3306,1.7416 0.9905,2.4089 0.6619,0.6676 1.4592,1.0006 2.3975,1.0006 0.4127,0 0.7974,-0.0623 1.1534,-0.1899 0.3552,-0.1301 0.6537,-0.3146 0.8949,-0.5561 v 1.601 h -6.3314 v 1.7033 z" style="fill:#0c458a;fill-opacity:1;fill-rule:nonzero;stroke:none" id="path14"/>
      <path d="m 366.5614,243.2364 h -1.9401 c -0.1706,0 -0.3112,-0.0439 -0.426,-0.1278 -0.1137,-0.0837 -0.1707,-0.1846 -0.1707,-0.2982 0,-0.1707 0.057,-0.3201 0.1707,-0.4476 0.1148,-0.1276 0.2554,-0.1931 0.426,-0.1931 h 1.2158 v -1.4916 h -0.8552 c -0.1675,0 -0.3113,-0.0816 -0.4252,-0.2437 -0.1145,-0.1661 -0.1715,-0.3668 -0.1715,-0.6084 0,-0.2415 0.0924,-0.4444 0.2801,-0.6074 0.1845,-0.1653 0.409,-0.2469 0.6806,-0.2469 h 0.4042 c 0.5831,0 1.1174,0.2823 1.6004,0.8436 0.4828,0.5621 0.8028,1.275 0.9581,2.1407 v 3.6241 h -1.7472 z m 5.3305,4.0499 v -1.7062 h -1.7065 v -8.9521 h -1.8768 v 1.9179 c -0.2253,-0.4552 -0.57,-0.8166 -1.0343,-1.0873 -0.4607,-0.2693 -0.9681,-0.4046 -1.5242,-0.4046 h -0.4042 c -0.7813,0 -1.4488,0.2608 -2.0047,0.779 -0.553,0.5176 -0.8297,1.1472 -0.8297,1.8848 0,0.3421 0.0814,0.6542 0.2438,0.9388 0.163,0.2843 0.3798,0.5043 0.6511,0.6619 -0.3691,0.0839 -0.6727,0.2684 -0.9057,0.553 -0.2361,0.2852 -0.3529,0.5976 -0.3529,0.9389 0,0.5536 0.2169,1.0312 0.6511,1.4272 0.4337,0.3983 0.9545,0.5967 1.5679,0.5967 h 0.3169 v 0.7458 h -3.5371 v 1.7062 z" style="fill:#0c458a;fill-opacity:1;fill-rule:nonzero;stroke:none" id="path16"/>
      <path d="m 376.7723,247.2871 v -1.7062 h -1.7064 v -8.952 h -1.8961 v 8.952 h -1.7062 v 1.7062 z" style="fill:#0c458a;fill-opacity:1;fill-rule:nonzero;stroke:none" id="path18"/>
      <path d="m 380.0772,245.88 c 0.1001,-0.1276 0.22,-0.193 0.3637,-0.193 0.1409,0 0.2577,0.0654 0.3498,0.193 0.0924,0.1267 0.1386,0.2767 0.1386,0.4476 0,0.1706 -0.0385,0.3197 -0.117,0.4473 -0.0783,0.1278 -0.1738,0.1925 -0.2875,0.1925 -0.1706,0 -0.3124,-0.0647 -0.426,-0.1925 -0.114,-0.1276 -0.1707,-0.2767 -0.1707,-0.4473 0,-0.1709 0.0485,-0.3209 0.1491,-0.4476 z m -2.3136,-3.9008 c 0.1783,0.3413 0.4311,0.6183 0.7566,0.8297 -0.3255,0.2143 -0.5783,0.5321 -0.7566,0.9497 -0.1769,0.4175 -0.2662,0.8841 -0.2662,1.3971 0,0.8811 0.2685,1.6322 0.8113,2.259 0.5397,0.6244 1.1849,0.9388 1.9392,0.9388 0.6106,0 1.1341,-0.2115 1.5655,-0.6287 0.4337,-0.4207 0.6506,-0.9199 0.6506,-1.5035 0,-0.5258 -0.1738,-0.9765 -0.5204,-1.3533 -0.3501,-0.3775 -0.7651,-0.5643 -1.2481,-0.5643 -0.2546,0 -0.4992,0.0759 -0.7243,0.233 -0.2276,0.1576 -0.4068,0.3636 -0.5346,0.619 0,-0.4699 0.0709,-0.8713 0.2146,-1.205 0.1409,-0.333 0.3124,-0.5014 0.5099,-0.5014 h 1.3865 v -1.7062 h -1.0228 c -0.2715,0 -0.4969,-0.1032 -0.6837,-0.3092 -0.1845,-0.2061 -0.2767,-0.4559 -0.2767,-0.7575 0,-0.295 0.0922,-0.5504 0.2767,-0.7534 0.1868,-0.2061 0.4122,-0.3093 0.6837,-0.3093 0.6973,0 1.351,0.2707 1.9607,0.819 0.6106,0.5485 1.0582,1.2696 1.3434,2.1648 v 2.984 h -0.7243 v 1.7065 h 4.3268 v -1.7065 h -1.7061 v -8.9549 h -1.8964 v 2.7728 c -0.3552,-0.54 -0.8113,-0.9606 -1.3649,-1.2588 -0.5528,-0.2985 -1.1441,-0.4476 -1.7685,-0.4476 -0.8813,0 -1.6356,0.3124 -2.2601,0.9382 -0.6259,0.6265 -0.938,1.3785 -0.938,2.2598 0,0.3853 0.0893,0.7458 0.2662,1.0882" style="fill:#0c458a;fill-opacity:1;fill-rule:nonzero;stroke:none" id="path20"/>
      <path d="m 389.8828,240.4434 c 0.1576,-0.1267 0.3422,-0.1922 0.5536,-0.1922 0.2138,0 0.396,0.0655 0.5451,0.1922 0.1494,0.1279 0.2223,0.277 0.2223,0.4476 0,0.1715 -0.0729,0.3206 -0.2223,0.4485 -0.1491,0.1267 -0.3313,0.1922 -0.5451,0.1922 -0.2114,0 -0.396,-0.0655 -0.5536,-0.1922 -0.1576,-0.1279 -0.233,-0.277 -0.233,-0.4485 0,-0.1706 0.0754,-0.3197 0.233,-0.4476 z m 7.994,6.8446 v -1.7065 h -1.7062 v -8.9544 h -1.8739 v 4.9046 h -1.3434 c 0.0406,-0.0732 0.076,-0.1599 0.106,-0.2662 0.027,-0.1083 0.0431,-0.233 0.0431,-0.3745 0,-0.7103 -0.2599,-1.3155 -0.7781,-1.8116 -0.5184,-0.4966 -1.1474,-0.7458 -1.8879,-0.7458 -0.7381,0 -1.3671,0.2492 -1.8853,0.7458 -0.5184,0.4961 -0.7789,1.1013 -0.7789,1.8116 0,0.7112 0.2605,1.3156 0.7789,1.8125 0.5182,0.4966 1.1472,0.7458 1.8853,0.7458 h 3.8603 v 2.1322 h -7.2922 v 1.7065 z" style="fill:#0c458a;fill-opacity:1;fill-rule:nonzero;stroke:none" id="path22"/>
      <path d="m 394.4449,250.4982 c 0.2146,0.2061 0.4777,0.3093 0.7897,0.3093 0.3116,0 0.5775,-0.1032 0.7997,-0.3093 0.22,-0.2061 0.3285,-0.4584 0.3285,-0.7566 0,-0.2985 -0.1085,-0.5505 -0.3285,-0.7565 -0.2222,-0.207 -0.4881,-0.3101 -0.7997,-0.3101 -0.312,0 -0.5751,0.1031 -0.7897,0.3101 -0.2115,0.206 -0.3197,0.458 -0.3197,0.7565 0,0.2982 0.1082,0.5505 0.3197,0.7566" style="fill:#0c458a;fill-opacity:1;fill-rule:nonzero;stroke:none" id="path24"/>
      <path d="m 414.3983,247.2871 v -1.7062 h -1.7062 v -8.952 h -1.8961 v 4.0498 h -2.344 v 1.9179 h 2.344 v 2.9843 h -3.0489 c 0.1845,-0.1845 0.3305,-0.4722 0.4368,-0.8628 0.1083,-0.3906 0.1598,-0.849 0.1598,-1.3748 0,-0.7951 -0.2091,-1.4925 -0.629,-2.0892 -0.4184,-0.5969 -0.955,-0.966 -1.6086,-1.1097 0.0862,-0.4692 0.2061,-0.8513 0.3628,-1.1503 0.1548,-0.2982 0.3124,-0.4476 0.47,-0.4476 0.2115,0 0.4068,0.0278 0.5859,0.0847 0.1761,0.0567 0.3144,0.1353 0.4144,0.2359 l 0.4261,-1.8122 c -0.1976,-0.144 -0.4229,-0.2492 -0.673,-0.32 -0.2469,-0.0706 -0.4989,-0.106 -0.7534,-0.106 -0.6707,0 -1.2696,0.3228 -1.804,0.9688 -0.532,0.6483 -0.8713,1.4593 -1.0119,2.4415 -0.1276,0.0131 -0.2744,0.0567 -0.4369,0.1267 -0.163,0.0709 -0.3367,0.1715 -0.5212,0.2991 l 0.532,1.9202 c 0.1409,-0.1438 0.3229,-0.2492 0.5423,-0.3201 0.2228,-0.0728 0.4589,-0.1082 0.7166,-0.1082 0.4121,0 0.7619,0.1683 1.055,0.5014 0.2906,0.3336 0.4366,0.735 0.4366,1.2047 0,0.5261 -0.146,0.9766 -0.4366,1.3536 -0.2931,0.3773 -0.6429,0.5643 -1.055,0.5643 h -2.3876 v 1.7062 z" style="fill:#0c458a;fill-opacity:1;fill-rule:nonzero;stroke:none" id="path26"/>
      <path d="m 417.2335,240.2629 c 0.326,-0.2906 0.7242,-0.4369 1.1934,-0.4369 0.513,0 0.9527,0.1463 1.3212,0.4369 0.3719,0.29 0.5564,0.6429 0.5564,1.055 0,0.4122 -0.1845,0.7651 -0.5564,1.0548 -0.3685,0.2908 -0.8082,0.4368 -1.3212,0.4368 -0.4692,0 -0.8674,-0.146 -1.1934,-0.4368 -0.3283,-0.2897 -0.4907,-0.6426 -0.4907,-1.0548 0,-0.4121 0.1624,-0.765 0.4907,-1.055 z m 6.6515,7.0228 v -1.7033 h -1.7065 v -8.9553 h -1.874 v 2.0271 c -0.2282,-0.2415 -0.5213,-0.4292 -0.8764,-0.5559 -0.3552,-0.1278 -0.7458,-0.1899 -1.1719,-0.1899 -0.9382,0 -1.7362,0.3336 -2.3975,1.0004 -0.6599,0.6672 -0.9904,1.4703 -0.9904,2.4091 0,0.9389 0.3305,1.7416 0.9904,2.4089 0.6613,0.6676 1.4593,1.0006 2.3975,1.0006 0.4122,0 0.7974,-0.0623 1.1526,-0.1899 0.356,-0.1301 0.6545,-0.3146 0.8957,-0.5561 v 1.601 h -6.3314 v 1.7033 z" style="fill:#0c458a;fill-opacity:1;fill-rule:nonzero;stroke:none" id="path28"/>
      <path d="m 421.0821,251.8061 c 0.5176,0.54 1.1472,0.8113 1.8847,0.8113 0.3422,0 0.6512,-0.0462 0.9281,-0.1383 0.2792,-0.0956 0.502,-0.2254 0.6729,-0.396 l -0.6621,-1.2782 c -0.0709,0.0978 -0.1868,0.1763 -0.3498,0.233 -0.1656,0.0578 -0.3609,0.0848 -0.5891,0.0848 -0.2684,0 -0.496,-0.1333 -0.6806,-0.4045 -0.1845,-0.2685 -0.2769,-0.5967 -0.2769,-0.9788 0,-0.3286 0.0601,-0.7008 0.1823,-1.1206 0.1193,-0.4206 0.2931,-0.8625 0.5207,-1.3317 h -1.641 c -0.2554,0.5122 -0.4482,0.9842 -0.5751,1.4188 -0.1276,0.4305 -0.1931,0.8104 -0.1931,1.1386 0,0.7682 0.2608,1.4219 0.779,1.9616" style="fill:#0c458a;fill-opacity:1;fill-rule:nonzero;stroke:none" id="path30"/>
      <path d="m 427.6057,245.88 c 0.1009,-0.1276 0.22,-0.193 0.3637,-0.193 0.1409,0 0.2577,0.0654 0.3501,0.193 0.0921,0.1267 0.1383,0.2767 0.1383,0.4476 0,0.1706 -0.0385,0.3197 -0.1168,0.4473 -0.0785,0.1278 -0.1737,0.1925 -0.2877,0.1925 -0.1706,0 -0.3121,-0.0647 -0.426,-0.1925 -0.1137,-0.1276 -0.1707,-0.2767 -0.1707,-0.4473 0,-0.1709 0.0485,-0.3209 0.1491,-0.4476 z m -2.3136,-3.9008 c 0.1791,0.3413 0.4314,0.6183 0.7566,0.8297 -0.3252,0.2143 -0.5775,0.5321 -0.7566,0.9497 -0.1769,0.4175 -0.2662,0.8841 -0.2662,1.3971 0,0.8811 0.2685,1.6322 0.8113,2.259 0.5397,0.6244 1.1857,0.9388 1.9395,0.9388 0.6103,0 1.1341,-0.2115 1.5655,-0.6287 0.4335,-0.4207 0.6503,-0.9199 0.6503,-1.5035 0,-0.5258 -0.1729,-0.9765 -0.5204,-1.3533 -0.3498,-0.3775 -0.7651,-0.5643 -1.2481,-0.5643 -0.2546,0 -0.4989,0.0759 -0.7243,0.233 -0.2276,0.1576 -0.4068,0.3636 -0.5343,0.619 0,-0.4699 0.0706,-0.8713 0.2146,-1.205 0.1414,-0.333 0.3121,-0.5014 0.5096,-0.5014 h 1.3865 v -1.7062 h -1.0228 c -0.2713,0 -0.4966,-0.1032 -0.6834,-0.3092 -0.1848,-0.2061 -0.277,-0.4559 -0.277,-0.7575 0,-0.295 0.0922,-0.5504 0.277,-0.7534 0.1868,-0.2061 0.4121,-0.3093 0.6834,-0.3093 0.6976,0 1.351,0.2707 1.9616,0.819 0.6097,0.5485 1.0573,1.2696 1.3425,2.1648 v 2.984 h -0.7243 v 1.7065 h 4.3268 v -1.7065 h -1.7061 v -8.9549 h -1.8964 v 2.7728 c -0.3552,-0.54 -0.811,-0.9606 -1.3649,-1.2588 -0.5528,-0.2985 -1.1441,-0.4476 -1.7685,-0.4476 -0.881,0 -1.6356,0.3124 -2.2592,0.9382 -0.6265,0.6265 -0.9389,1.3785 -0.9389,2.2598 0,0.3853 0.0893,0.7458 0.2662,1.0882" style="fill:#0c458a;fill-opacity:1;fill-rule:nonzero;stroke:none" id="path32"/>
      <path d="m 437.4113,240.4434 c 0.1576,-0.1267 0.3422,-0.1922 0.5536,-0.1922 0.2146,0 0.396,0.0655 0.5454,0.1922 0.1491,0.1279 0.2223,0.277 0.2223,0.4476 0,0.1715 -0.0732,0.3206 -0.2223,0.4485 -0.1494,0.1267 -0.3308,0.1922 -0.5454,0.1922 -0.2114,0 -0.396,-0.0655 -0.5536,-0.1922 -0.1567,-0.1279 -0.233,-0.277 -0.233,-0.4485 0,-0.1706 0.0763,-0.3197 0.233,-0.4476 z m 7.9949,6.8446 v -1.7065 H 443.7 v -8.9544 h -1.8748 v 4.9046 h -1.3425 c 0.0408,-0.0732 0.0754,-0.1599 0.1051,-0.2662 0.0278,-0.1083 0.044,-0.233 0.044,-0.3745 0,-0.7103 -0.2608,-1.3155 -0.779,-1.8116 -0.5182,-0.4966 -1.1472,-0.7458 -1.8879,-0.7458 -0.7381,0 -1.3671,0.2492 -1.8853,0.7458 -0.5182,0.4961 -0.7781,1.1013 -0.7781,1.8116 0,0.7112 0.2599,1.3156 0.7781,1.8125 0.5182,0.4966 1.1472,0.7458 1.8853,0.7458 h 3.8603 v 2.1322 h -7.2919 v 1.7065 z" style="fill:#0c458a;fill-opacity:1;fill-rule:nonzero;stroke:none" id="path34"/>
      <path d="m 452.1421,242.7035 c 0,-0.4391 0.1491,-0.8167 0.4485,-1.1288 0.2982,-0.3146 0.6534,-0.4691 1.0655,-0.4691 0.3254,0 0.6429,0.1114 0.9496,0.339 0.3039,0.2277 0.5508,0.54 0.7353,0.9389 v 3.198 h -3.1989 z m 6.7791,4.5845 v -1.7065 h -1.7062 v -8.9544 h -1.874 v 3.3044 c -0.2284,-0.2415 -0.4884,-0.4261 -0.7789,-0.5536 -0.2931,-0.1279 -0.5936,-0.193 -0.906,-0.193 -0.9388,0 -1.7362,0.3452 -2.3984,1.034 -0.661,0.6914 -0.9927,1.5188 -0.9927,2.4846 v 2.878 h -1.0224 v 1.7065 z" style="fill:#0c458a;fill-opacity:1;fill-rule:nonzero;stroke:none" id="path36"/>
      <path d="m 456.406,240.0384 v -1.2773 l -5.6287,-2.9866 -0.6376,1.2804 z" style="fill:#0c458a;fill-opacity:1;fill-rule:nonzero;stroke:none" id="path38"/>
      <path d="m 461.7686,245.88 c 0.1006,-0.1276 0.22,-0.193 0.3637,-0.193 0.1414,0 0.2577,0.0654 0.3498,0.193 0.0924,0.1267 0.1386,0.2767 0.1386,0.4476 0,0.1706 -0.0377,0.3197 -0.1162,0.4473 -0.0791,0.1278 -0.1738,0.1925 -0.2877,0.1925 -0.1713,0 -0.3121,-0.0647 -0.4258,-0.1925 -0.114,-0.1276 -0.1715,-0.2767 -0.1715,-0.4473 0,-0.1709 0.049,-0.3209 0.1491,-0.4476 z m -2.3136,-3.9008 c 0.1791,0.3413 0.4311,0.6183 0.7574,0.8297 -0.3263,0.2143 -0.5783,0.5321 -0.7574,0.9497 -0.1764,0.4175 -0.2654,0.8841 -0.2654,1.3971 0,0.8811 0.2682,1.6322 0.8105,2.259 0.5397,0.6244 1.1857,0.9388 1.94,0.9388 0.6097,0 1.1333,-0.2115 1.5647,-0.6287 0.4346,-0.4207 0.6514,-0.9199 0.6514,-1.5035 0,-0.5258 -0.1737,-0.9765 -0.5207,-1.3533 -0.3498,-0.3775 -0.7651,-0.5643 -1.2478,-0.5643 -0.2554,0 -0.4992,0.0759 -0.7246,0.233 -0.2276,0.1576 -0.4067,0.3636 -0.5343,0.619 0,-0.4699 0.0709,-0.8713 0.2146,-1.205 0.1406,-0.333 0.3115,-0.5014 0.5097,-0.5014 h 1.3864 v -1.7062 h -1.0227 c -0.2713,0 -0.4967,-0.1032 -0.6835,-0.3092 -0.1845,-0.2061 -0.2769,-0.4559 -0.2769,-0.7575 0,-0.295 0.0924,-0.5504 0.2769,-0.7534 0.1868,-0.2061 0.4122,-0.3093 0.6835,-0.3093 0.6967,0 1.3504,0.2707 1.961,0.819 0.6105,0.5485 1.0579,1.2696 1.3425,2.1648 v 2.984 h -0.7243 v 1.7065 h 4.3268 v -1.7065 h -1.7062 v -8.9549 h -1.8963 v 2.7728 c -0.3552,-0.54 -0.8105,-0.9606 -1.3641,-1.2588 -0.5536,-0.2985 -1.1449,-0.4476 -1.7685,-0.4476 -0.8822,0 -1.6356,0.3124 -2.2601,0.9382 -0.6267,0.6265 -0.938,1.3785 -0.938,2.2598 0,0.3853 0.089,0.7458 0.2654,1.0882" style="fill:#0c458a;fill-opacity:1;fill-rule:nonzero;stroke:none" id="path40"/>
      <path d="m 474.0055,247.2871 v -1.7062 h -1.7062 v -8.952 h -1.8961 v 8.952 h -1.7064 v 1.7062 z" style="fill:#0c458a;fill-opacity:1;fill-rule:nonzero;stroke:none" id="path42"/>
      <path d="m 476.4569,240.4434 c 0.1579,-0.1267 0.3416,-0.1922 0.5539,-0.1922 0.2137,0 0.396,0.0655 0.5451,0.1922 0.1491,0.1279 0.2222,0.277 0.2222,0.4476 0,0.1715 -0.0731,0.3206 -0.2222,0.4485 -0.1491,0.1267 -0.3314,0.1922 -0.5451,0.1922 -0.2123,0 -0.396,-0.0655 -0.5539,-0.1922 -0.1576,-0.1279 -0.2327,-0.277 -0.2327,-0.4485 0,-0.1706 0.0751,-0.3197 0.2327,-0.4476 z m 7.994,6.8446 v -1.7065 h -1.7062 v -8.9544 h -1.874 v 4.9046 h -1.3433 c 0.0408,-0.0732 0.0762,-0.1599 0.1063,-0.2662 0.0266,-0.1083 0.0428,-0.233 0.0428,-0.3745 0,-0.7103 -0.2597,-1.3155 -0.7781,-1.8116 -0.5205,-0.4966 -1.1472,-0.7458 -1.8876,-0.7458 -0.7385,0 -1.3675,0.2492 -1.8856,0.7458 -0.5182,0.4961 -0.779,1.1013 -0.779,1.8116 0,0.7112 0.2608,1.3156 0.779,1.8125 0.5181,0.4966 1.1471,0.7458 1.8856,0.7458 h 3.8599 v 2.1322 h -7.2918 v 1.7065 z" style="fill:#0c458a;fill-opacity:1;fill-rule:nonzero;stroke:none" id="path44"/>
      <path d="m 487.8198,242.1714 h 2.5144 v 3.4095 h -2.5144 z m 6.1169,5.1157 v -1.7062 h -1.7033 v -8.9543 h -1.8992 v 3.6238 h -2.5359 c 0,-0.3552 -0.1355,-0.6565 -0.4045,-0.9057 -0.2716,-0.2469 -0.5967,-0.3713 -0.9819,-0.3713 -0.4391,0 -0.8136,0.1652 -1.1174,0.5012 -0.3068,0.3339 -0.4584,0.7353 -0.4584,1.205 0,0.4121 0.1054,0.7619 0.3169,1.055 0.2146,0.29 0.47,0.4368 0.7682,0.4368 v 3.4095 h -1.8961 v 1.7062 z" style="fill:#0c458a;fill-opacity:1;fill-rule:nonzero;stroke:none" id="path46"/>
      <path d="m 489.653,235.2424 1.641,1.0659 3.7953,-3.5187 -0.8958,-0.7461 -2.8995,2.7729 -0.8737,-0.5344 z" style="fill:#0c458a;fill-opacity:1;fill-rule:nonzero;stroke:none" id="path48"/>
    </g>
    <g id="g50">
      <path d="m 379.1387,329.0318 -39.1079,0.6497 c -1.3326,-3.5218 -1.946,-7.1484 -1.9477,-10.7966 l 41.2821,7.2431 c -0.15,0.8611 -0.2328,1.7453 -0.2328,2.6495 0,0.0851 0.005,0.1695 0.006,0.2543" style="fill:#0c458a;fill-opacity:1;fill-rule:nonzero;stroke:none" id="path52"/>
      <path d="m 359.7486,349.5971 c -1.1381,-2.1146 -2.7513,-4.2502 -4.4717,-6.5188 l 24.7808,-9.0434 c 0.3364,0.921 0.7594,1.7997 1.2571,2.6286 z" style="fill:#00ace8;fill-opacity:1;fill-rule:nonzero;stroke:none" id="path54"/>
      <path d="m 371.594,420.1787 c -6.4899,-0.2543 -12.7429,-1.0622 -18.5845,-2.3037 l 34.9874,-75.1958 c 0.874,0.4073 1.7918,0.7356 2.746,0.9734 z" style="fill:#00ace8;fill-opacity:1;fill-rule:nonzero;stroke:none" id="path56"/>
      <path d="m 383.8073,339.7949 -49.5921,51.2674 c -4.746,-3.9682 -7.1665,-8.3724 -6.3173,-12.5461 1.2113,-5.9522 32.3773,-14.457 33.4208,-22.0527 0.1944,-1.4173 0.0283,-2.7921 -0.3989,-4.1553 l 20.9951,-14.7271 c 0.5604,0.7971 1.1943,1.538 1.8924,2.2138" style="fill:#0c458a;fill-opacity:1;fill-rule:nonzero;stroke:none" id="path58"/>
      <path d="m 394.7196,344.1039 0.9714,58.4798 c -2.4026,0.6398 -4.9521,1.1132 -7.6785,1.3785 -2.2881,0.2226 -4.5606,0.3518 -6.8094,0.4009 l 10.6127,-60.4857 c 0.8611,0.1499 1.7453,0.233 2.6495,0.233 0.0851,0 0.1693,-0.005 0.2543,-0.007" style="fill:#0c458a;fill-opacity:1;fill-rule:nonzero;stroke:none" id="path60"/>
      <path d="m 354.3766,400.9541 c -5.7756,-1.6668 -10.8978,-3.8463 -15.0709,-6.3278 l 45.3149,-54.0966 c 0.7432,0.6233 1.5463,1.1766 2.3998,1.6514 z" style="fill:#0081c8;fill-opacity:1;fill-rule:nonzero;stroke:none" id="path62"/>
      <path d="m 367.3817,283.6162 c 2.8647,-2.0409 5.8283,-3.742 8.7732,-5.0133 l 13.0527,35.7672 c -0.921,0.3362 -1.8003,0.7594 -2.6288,1.2572 z" style="fill:#0081c8;fill-opacity:1;fill-rule:nonzero;stroke:none" id="path64"/>
      <path d="m 345.6556,316.5639 c 0.3809,-3.1456 1.2441,-6.2822 2.4896,-9.3382 l 32.4182,15.0834 c -0.4074,0.8742 -0.7356,1.7918 -0.9737,2.746 z" style="fill:#00ace8;fill-opacity:1;fill-rule:nonzero;stroke:none" id="path66"/>
      <path d="m 377.5334,269.5402 c 2.0376,-0.6352 4.0462,-1.0766 5.9936,-1.2929 2.1776,-0.2418 4.0195,-0.246 5.5859,-0.0538 l 4.0031,45.3135 c -0.9844,0.0862 -1.942,0.2653 -2.8644,0.5287 z" style="fill:#00ace8;fill-opacity:1;fill-rule:nonzero;stroke:none" id="path68"/>
      <path d="m 349.6674,303.8958 c 1.4553,-2.8703 3.2332,-5.6409 5.2441,-8.2508 l 27.8011,23.2878 c -0.6231,0.7432 -1.1764,1.5463 -1.6515,2.3998 z" style="fill:#0081c8;fill-opacity:1;fill-rule:nonzero;stroke:none" id="path70"/>
      <path d="m 383.4476,318.1195 -26.1859,-25.3298 c 2.1994,-2.5081 4.6046,-4.8248 7.128,-6.8871 l 21.2721,30.3248 c -0.7974,0.5601 -1.5387,1.194 -2.2142,1.8921" style="fill:#0c458a;fill-opacity:1;fill-rule:nonzero;stroke:none" id="path72"/>
      <path d="m 353.363,340.5257 c -1.7303,-2.3564 -3.4308,-4.8858 -4.7492,-7.698 l 30.581,-2.7015 c 0.0862,0.9848 0.2653,1.9421 0.5284,2.8647 z" style="fill:#0081c8;fill-opacity:1;fill-rule:nonzero;stroke:none" id="path74"/>
      <path d="m 410.4527,299.992 c 3.0918,-0.1942 6.5415,-1.1203 10.2237,-2.5056 l -16.3669,19.5384 c -0.7433,-0.6231 -1.5466,-1.1764 -2.3995,-1.6515 z" style="fill:#0081c8;fill-opacity:1;fill-rule:nonzero;stroke:none" id="path76"/>
      <path d="m 405.1225,317.7595 22.4778,-23.2367 c 13.9522,-6.5597 29.8809,-16.8384 42.1107,-18.5281 l -62.6959,43.9793 c -0.5601,-0.7974 -1.1939,-1.539 -1.8926,-2.2145" style="fill:#00ace8;fill-opacity:1;fill-rule:nonzero;stroke:none" id="path78"/>
      <path d="m 484.3967,274.8444 c 0.3943,0.2149 0.7824,0.4431 1.1571,0.7019 8.919,6.1585 6.0299,12.3882 2.1113,19.2197 l -78.7927,28.7538 c -0.3362,-0.9212 -0.7591,-1.8 -1.2574,-2.6286 z" style="fill:#0081c8;fill-opacity:1;fill-rule:nonzero;stroke:none" id="path80"/>
      <path d="m 394.2105,313.4511 -0.6004,-36.153 c 5.785,3.4367 3.352,12.782 6.6611,18.3863 l -3.1566,17.993 c -0.8612,-0.1503 -1.7453,-0.2328 -2.6493,-0.2328 -0.0856,0 -0.1698,0.005 -0.2548,0.007" style="fill:#0081c8;fill-opacity:1;fill-rule:nonzero;stroke:none" id="path82"/>
      <path d="m 478.876,304.6501 c -0.963,2.4013 -1.5577,4.8921 -1.376,7.4937 0.3473,4.9799 1.6271,7.2848 3.566,8.983 l -71.3307,6.3014 c -0.0859,-0.9845 -0.2653,-1.942 -0.5287,-2.8647 z" style="fill:#0c458a;fill-opacity:1;fill-rule:nonzero;stroke:none" id="path84"/>
      <path d="m 402.188,297.9133 c 0.8929,0.7138 2.0016,1.2853 3.3985,1.664 0.7285,0.1973 1.4927,0.3206 2.2836,0.3894 l -6.937,14.9089 c -0.8739,-0.4074 -1.7915,-0.7356 -2.7459,-0.9737 z" style="fill:#0c458a;fill-opacity:1;fill-rule:nonzero;stroke:none" id="path86"/>
      <path d="m 432.7223,392.5701 c -3.492,3.6485 -7.0875,7.3817 -11.0084,10.8762 l -21.9912,-60.2617 c 0.9207,-0.3362 1.7998,-0.7591 2.6286,-1.2572 z" style="fill:#00ace8;fill-opacity:1;fill-rule:nonzero;stroke:none" id="path88"/>
      <path d="m 405.4827,339.4349 32.1067,31.0581 c -2.8988,2.2706 -5.6447,4.9442 -8.4045,7.78 l -25.9163,-36.9457 c 0.7974,-0.5601 1.5384,-1.1939 2.2141,-1.8924" style="fill:#0c458a;fill-opacity:1;fill-rule:nonzero;stroke:none" id="path90"/>
      <path d="m 413.0425,393.7714 c -3.6261,2.8029 -7.6252,5.273 -12.2077,7.1065 l -5.0208,-56.8304 c 0.9848,-0.0856 1.9421,-0.2651 2.8647,-0.5284 z" style="fill:#0081c8;fill-opacity:1;fill-rule:nonzero;stroke:none" id="path92"/>
      <path d="m 409.7979,328.7775 c 0,-0.0856 -0.005,-0.1698 -0.006,-0.2548 l 79.6175,-1.3224 c 1.8085,1.6781 3.7437,3.9334 5.7501,7.1969 2.346,3.8163 3.513,8.225 3.7772,12.7103 l -89.3713,-15.681 c 0.1499,-0.8609 0.2327,-1.745 0.2327,-2.649" style="fill:#0081c8;fill-opacity:1;fill-rule:nonzero;stroke:none" id="path94"/>
      <path d="m 514.1597,358.7278 c -1.3706,8.7738 -5.33,16.7873 -10.2569,20.9682 L 408.367,335.2456 c 0.4073,-0.8739 0.7356,-1.7921 0.9737,-2.7462 z" style="fill:#00ace8;fill-opacity:1;fill-rule:nonzero;stroke:none" id="path96"/>
      <path d="m 457.3312,363.6941 c -1.8164,-0.1533 -3.7788,-0.0881 -5.9204,0.2704 -3.7491,0.6268 -7.0863,2.0404 -10.1937,3.9751 L 406.2175,338.622 c 0.623,-0.7436 1.1766,-1.5466 1.6514,-2.3999 z" style="fill:#0081c8;fill-opacity:1;fill-rule:nonzero;stroke:none" id="path98"/>
    </g>
    <path d="m 305.1964,175.6355 v 37.5843 h -7.9693 v -37.5843 z" style="fill:#0c458a;fill-opacity:1;fill-rule:nonzero;stroke:none" id="path100"/>
    <path d="m 319.9615,175.6355 v 37.5843 h -7.9693 v -37.5843 z" style="fill:#0c458a;fill-opacity:1;fill-rule:nonzero;stroke:none" id="path102"/>
    <path d="m 334.2957,175.6355 h 7.8078 v 30.5305 h 10.3382 v 7.0538 h -28.4845 v -7.0538 h 10.3385 z" style="fill:#0c458a;fill-opacity:1;fill-rule:nonzero;stroke:none" id="path104"/>
    <path d="m 393.8499,189.0969 v 24.1229 h -7.9154 v -25.6845 c 0,-1.2923 -0.1704,-2.3062 -0.5117,-3.0421 -0.341,-0.7359 -0.7447,-1.2745 -1.2115,-1.6155 -0.4666,-0.341 -0.951,-0.5473 -1.4536,-0.6191 -0.5026,-0.072 -0.9156,-0.1077 -1.2385,-0.1077 -0.8974,0 -1.6602,0.1525 -2.2884,0.4575 -0.6284,0.3053 -1.1489,0.709 -1.5616,1.2116 -0.4127,0.5026 -0.6911,1.0769 -0.8345,1.7231 -0.1437,0.6461 -0.1797,1.3102 -0.1077,1.9922 h -8.2387 c -0.2151,-2.1177 -0.009,-3.9574 0.6194,-5.519 0.6282,-1.5616 1.5435,-2.8539 2.7462,-3.877 1.2025,-1.023 2.6294,-1.7858 4.2806,-2.2884 1.6512,-0.5026 3.4282,-0.754 5.3309,-0.754 2.8717,0 5.1332,0.4578 6.7844,1.3731 1.6515,0.9156 2.8896,2.0642 3.7154,3.4464 0.8257,1.3819 1.3461,2.8896 1.5616,4.5229 0.2154,1.6334 0.3231,3.1859 0.3231,4.6576" style="fill:#0c458a;fill-opacity:1;fill-rule:nonzero;stroke:none" id="path106"/>
    <path d="m 416.9069,213.2198 h -8.8307 l -12.7613,-37.5843 h 8.077 l 2.6385,8.2922 h 12.9226 l 2.6923,-8.2922 h 8.0229 z m -8.5615,-22.1845 4.146,13.0847 4.2001,-13.0847 z" style="fill:#0c458a;fill-opacity:1;fill-rule:nonzero;stroke:none" id="path108"/>
    <path d="m 447.6104,175.6355 h 5.1154 l 7.2692,19.7076 v -19.7076 h 7.6997 v 37.5843 h -9.1536 l -8.3999,-24.1229 -8.3461,24.1229 h -9.1539 v -37.5843 h 7.6462 v 19.7076 z" style="fill:#0c458a;fill-opacity:1;fill-rule:nonzero;stroke:none" id="path110"/>
    <path d="m 489.8367,175.6355 h 5.1154 l 7.2692,19.7076 v -19.7076 h 7.6997 v 37.5843 h -9.1536 l -8.3999,-24.1229 -8.3461,24.1229 h -9.1539 v -37.5843 h 7.6462 v 19.7076 z" style="fill:#0c458a;fill-opacity:1;fill-rule:nonzero;stroke:none" id="path112"/>
    <path d="m 530.7707,175.0969 c 2.5126,0 4.6485,0.3232 6.4077,0.9695 1.7589,0.646 3.1946,1.5973 4.3075,2.8536 1.1129,1.2566 1.9205,2.8091 2.4231,4.6579 0.5026,1.8485 0.7537,3.9756 0.7537,6.3805 v 23.2614 h -7.8075 v -23.2614 c 0,-0.9332 -0.0717,-1.8666 -0.2154,-2.7998 -0.1437,-0.9334 -0.4309,-1.768 -0.8614,-2.5038 -0.4309,-0.7359 -1.05,-1.3374 -1.8579,-1.804 -0.8076,-0.4666 -1.8575,-0.6999 -3.1498,-0.6999 -1.2923,0 -2.3335,0.2333 -3.1232,0.6999 -0.7898,0.4666 -1.3998,1.0681 -1.8306,1.804 -0.4309,0.7358 -0.7181,1.5704 -0.8615,2.5038 -0.1437,0.9332 -0.2154,1.8666 -0.2154,2.7998 v 23.2614 h -7.8616 v -23.2614 c 0,-2.4049 0.2602,-4.532 0.7809,-6.3805 0.5204,-1.8488 1.3371,-3.4013 2.45,-4.6579 1.1126,-1.2563 2.5486,-2.2076 4.3075,-2.8536 1.7589,-0.6463 3.877,-0.9695 6.3539,-0.9695" style="fill:#0c458a;fill-opacity:1;fill-rule:nonzero;stroke:none" id="path114"/>
  </g>
</svg>