<svg width="107" height="108" viewBox="0 0 107 108" fill="none" xmlns="http://www.w3.org/2000/svg">
<path d="M23.4786 0.959961C24.2369 10.9016 1.90998 22.7529 12.2449 42.4678C22.5799 62.1826 53.5285 54.4596 53.5285 54.4596C53.5285 54.4596 75.9958 31.9925 64.7622 12.9797C53.5285 -6.033 31.5107 6.74523 23.4786 0.959961Z" fill="#1d3261"/>
<path d="M107 24.3815C97.0578 25.1117 85.2062 2.81314 65.4912 13.148C45.7761 23.4828 53.4992 54.4312 53.4992 54.4312C53.4992 54.4312 75.9666 76.8983 94.9795 65.6648C113.993 54.4312 101.186 32.4696 107 24.3815Z" fill="#1d3261"/>
<path d="M83.579 107.96C82.8207 98.0464 105.148 86.1669 94.8126 66.4801C84.4776 46.7934 53.5572 54.4604 53.5572 54.4604C53.5572 54.4604 30.9213 76.9273 42.3235 95.9682C53.7257 115.009 75.4907 102.175 83.579 107.96Z" fill="#1d3261"/>
<path d="M0 84.4527C9.9137 83.6945 21.7653 106.021 41.4803 95.6862C61.1954 85.3514 53.5004 54.403 53.5004 54.403C53.5004 54.403 31.033 31.7955 11.992 43.1695C-7.04907 54.5434 5.78533 76.4488 0 84.4527Z" fill="#1d3261"/>
<path d="M3.20215 40.3617C9.60533 45.9785 3.20212 66.4798 21.4287 72.0685C39.6553 77.6571 53.5006 54.4598 53.5006 54.4598C53.5006 54.4598 53.5006 27.3871 35.2459 22.7533C16.9912 18.1194 11.5431 38.9856 3.20215 40.3617Z" fill="#611C42"/>
<path d="M67.5704 4.16187C61.9536 10.5931 41.4802 4.30243 35.8914 22.3884C30.3027 40.4744 53.5002 54.4601 53.5002 54.4601C53.5002 54.4601 80.5734 54.4601 85.1792 36.2337C89.785 18.0073 68.9746 12.5028 67.5704 4.16187Z" fill="#611C42"/>
<path d="M103.8 68.5572C97.3689 62.9404 103.8 42.4672 85.5455 36.8504C67.2908 31.2337 53.501 54.459 53.501 54.459C53.501 54.459 53.3606 81.5318 71.7276 86.1656C90.0946 90.7994 95.4311 69.9333 103.8 68.5572Z" fill="#611C42"/>
<path d="M39.4021 104.757C45.0189 98.326 65.4923 104.757 71.1092 86.5308C76.726 68.3044 53.5004 54.4591 53.5004 54.4591C53.5004 54.4591 26.399 54.3187 21.7932 72.7136C17.1874 91.1085 38.0259 96.3882 39.4021 104.757Z" fill="#611C42"/>
<path d="M22.3564 71.9556C28.1418 71.5343 35.0501 84.5091 46.5084 78.471C57.9667 72.433 53.5013 54.4594 53.5013 54.4594C53.5013 54.4594 40.4707 41.3162 29.3494 47.9439C18.228 54.5717 25.7265 67.2656 22.3564 71.9556Z" fill="#1d3261"/>
<path d="M36.0034 23.3434C36.4247 29.1286 23.4496 36.0093 29.4877 47.4675C35.5258 58.9257 53.4998 54.4603 53.4998 54.4603C53.4998 54.4603 66.6433 41.4574 59.9874 30.3362C53.3315 19.215 40.6935 26.7134 36.0034 23.3434Z" fill="#1d3261"/>
<path d="M84.6179 36.964C78.8325 37.3852 71.9516 24.4105 60.4652 30.4485C48.9788 36.4865 53.5004 54.4602 53.5004 54.4602C53.5004 54.4602 66.5317 67.6315 77.6249 60.9756C88.7182 54.3198 81.2478 41.6821 84.6179 36.964Z" fill="#1d3261"/>
<path d="M70.9963 85.605C70.5469 79.8197 83.5501 72.9112 77.512 61.453C71.4739 49.9948 53.4999 54.4601 53.4999 54.4601C53.4999 54.4601 40.3289 67.4909 46.9849 78.6121C53.6408 89.7333 66.2781 82.2349 70.9963 85.605Z" fill="#1d3261"/>
<path d="M26.54 46.9049C31.5109 40.7826 53.5004 54.4594 53.5004 54.4594C53.5004 54.4594 27.6072 54.7403 26.54 46.9049Z" fill="#1d3261"/>
<path d="M33.9251 34.4364C41.3113 31.628 53.584 54.4601 53.584 54.4601C53.584 54.4601 30.9482 41.7662 33.9251 34.4364Z" fill="#1d3261"/>
<path d="M46.5354 27.3311C54.3428 28.5948 53.5003 54.4601 53.5003 54.4601C53.5003 54.4601 40.3288 32.1896 46.5354 27.3311Z" fill="#1d3261"/>
<path d="M61.0264 27.4998C67.1768 32.4987 53.4993 54.4603 53.4993 54.4603C53.4993 54.4603 53.219 28.595 61.0264 27.4998Z" fill="#1d3261"/>
<path d="M73.5253 34.8851C76.3337 42.2711 53.501 54.5437 53.501 54.5437C53.501 54.5437 66.1954 31.9082 73.5253 34.8851Z" fill="#1d3261"/>
<path d="M80.6026 47.523C79.3669 55.3303 53.501 54.4598 53.501 54.4598C53.501 54.4598 75.7721 41.2884 80.6026 47.523Z" fill="#1d3261"/>
<path d="M80.4339 61.9858C75.463 68.1081 53.501 54.4312 53.501 54.4312C53.501 54.4312 79.3667 54.1785 80.4339 61.9858Z" fill="#1d3261"/>
<path d="M73.0476 74.4829C65.6895 77.2913 53.3887 54.4591 53.3887 54.4591C53.3887 54.4591 76.0245 67.153 73.0476 74.4829Z" fill="#1d3261"/>
<path d="M60.4364 81.6441C52.629 80.3804 53.4997 54.5153 53.4997 54.5153C53.4997 54.5153 66.671 76.7295 60.4364 81.6441Z" fill="#1d3261"/>
<path d="M45.9463 81.4195C39.852 76.4206 53.5288 54.4591 53.5288 54.4591C53.5288 54.4591 53.7536 80.3242 45.9463 81.4195Z" fill="#1d3261"/>
<path d="M33.4767 74.0342C30.6682 66.6481 53.5003 54.3755 53.5003 54.3755C53.5003 54.3755 40.8066 77.011 33.4767 74.0342Z" fill="#1d3261"/>
<path d="M26.2861 61.3959C27.5499 53.5886 53.4152 54.4593 53.4152 54.4593C53.4152 54.4593 31.2009 67.6024 26.2861 61.3959Z" fill="#1d3261"/>
</svg>
